<?xml version="1.0" encoding="utf-8"?>
<!-- Generator: Adobe Illustrator 15.0.0, SVG Export Plug-In . SVG Version: 6.00 Build 0)  -->
<!DOCTYPE svg PUBLIC "-//W3C//DTD SVG 1.1//EN" "http://www.w3.org/Graphics/SVG/1.1/DTD/svg11.dtd">
<svg version="1.1" id="Layer_1" xmlns="http://www.w3.org/2000/svg" xmlns:xlink="http://www.w3.org/1999/xlink" x="0px" y="0px"
	 width="472px" height="156px" viewBox="0 0 472 156" enable-background="new 0 0 472 156" xml:space="preserve">
<g>
	<g>
		<path fill="#FFFAFA" stroke="#A6CE39" stroke-miterlimit="10" d="M77.737,107.909c0.332-0.172,0.671-0.329,1.01-0.49
			c-0.093-3.699-0.003-7.347-0.023-10.968c-0.023-4.043-0.073-8.067-0.594-11.982c-0.237-1.951-0.57-3.881-1.118-5.714
			c-0.542-1.822-1.261-3.578-2.362-4.962c-1.097-1.389-2.526-2.305-4.317-2.615c-0.467-0.08-0.872-0.111-1.443-0.126
			c-0.473-0.013-0.991-0.003-1.467,0.044c-0.964,0.092-1.875,0.301-2.692,0.648c-1.624,0.709-2.836,2.006-3.55,3.604
			c-0.708,1.599-0.962,3.422-0.922,5.239c0.042,1.824,0.377,3.66,0.895,5.424c0.27,0.877,0.603,1.734,0.974,2.557
			c0.383,0.818,0.848,1.586,1.352,2.271c0.511,0.68,1.109,1.255,1.71,1.609c0.303,0.182,0.599,0.301,0.889,0.39
			c0.076,0.023,0.148,0.042,0.224,0.057l0.055,0.013c0.016,0-0.104-0.008-0.038-0.002l0.028,0.002l0.055,0.008l0.221,0.021
			l0.292,0.025c0.077,0.01,0.19,0.005,0.284,0.01c0.777,0,1.324-0.146,1.82-0.523c0.51-0.362,0.952-1.05,1.214-1.858
			c0.514-1.644,0.521-3.622,0.175-5.524c-0.014-0.079-0.032-0.161-0.048-0.241c-0.267,0.329-0.611,0.575-1.037,0.673
			c-1.31,0.303-2.793-0.804-3.315-2.472c-0.517-1.671,0.122-3.265,1.434-3.568c0.228-0.052,0.461-0.048,0.694-0.021l0.002-0.002
			c0.007,0.002,0.013,0.004,0.019,0.008c0.776,0.102,1.541,0.618,2.073,1.403c0.249,0.265,0.486,0.537,0.706,0.816
			c0.702,0.906,1.226,1.89,1.677,2.897c0.452,1.015,0.766,2.072,0.98,3.166c0.209,1.093,0.292,2.234,0.114,3.43
			c-0.181,1.18-0.591,2.486-1.689,3.639c-0.545,0.565-1.264,1.058-2.049,1.389c-0.786,0.337-1.623,0.531-2.417,0.609
			c-0.204,0.015-0.385,0.037-0.604,0.045c-0.198,0.006-0.484,0.014-0.6,0.011l-0.223-0.003h-0.056h-0.028l-0.092-0.002l-0.166-0.011
			c-0.22-0.013-0.44-0.036-0.656-0.067c-0.871-0.115-1.684-0.393-2.402-0.727c-1.444-0.689-2.522-1.619-3.412-2.578
			c-0.894-0.963-1.563-2.002-2.123-3.053c-0.568-1.053-0.99-2.135-1.309-3.232c-0.655-2.188-0.879-4.444-0.724-6.699
			c0.167-2.25,0.713-4.527,1.894-6.681c1.148-2.136,3.121-4.187,5.781-5.301c1.304-0.572,2.719-0.901,4.108-1.045
			c0.701-0.071,1.372-0.093,2.082-0.082c0.617,0.008,1.395,0.057,2.095,0.167c1.438,0.205,2.878,0.68,4.123,1.389
			c1.249,0.705,2.284,1.615,3.117,2.582c1.656,1.953,2.616,4.09,3.294,6.193c0.66,2.118,1.06,4.23,1.324,6.33
			c0.809,7.383,0.306,14.635-0.093,21.749c2.567-0.818,5.282-1.34,8.057-1.455c3.203-0.136,6.429,0.265,9.476,1.111l-0.238-2.888
			c-0.138-1.781-0.268-3.573-0.367-5.375c-0.179-3.606-0.199-7.259,0.274-10.979c0.267-1.855,0.673-3.731,1.396-5.586
			c0.729-1.842,1.772-3.688,3.348-5.287c1.551-1.606,3.697-2.85,5.977-3.517c0.562-0.164,1.151-0.315,1.706-0.421
			c0.667-0.123,1.25-0.185,1.896-0.218c1.27-0.06,2.574,0.085,3.786,0.426c2.451,0.667,4.44,2.038,5.988,3.552
			c1.561,1.531,2.745,3.253,3.648,5.063c0.896,1.813,1.495,3.725,1.746,5.709c0.231,1.984,0.139,4.055-0.664,6.141
			c-0.419,1.031-1.022,2.078-1.958,3.008c-0.923,0.921-2.223,1.684-3.618,2.025c-0.36,0.09-0.664,0.146-1.074,0.202l-0.389,0.041
			l-0.513,0.042c-0.644,0.038-1.296,0.025-1.964-0.055c-1.326-0.144-2.691-0.616-3.748-1.381c-1.057-0.762-1.805-1.738-2.224-2.739
			c-0.426-1.003-0.6-2.024-0.589-3.023c0.033-0.999,0.224-1.983,0.665-2.905c0.229-0.46,0.508-0.904,0.894-1.295
			c0.228-0.223,0.506-0.428,0.808-0.582c0.008-0.005,0.018-0.008,0.026-0.013c0.132-0.063,0.271-0.118,0.412-0.159
			c0.017-0.005,0.028-0.01,0.042-0.016c0.017-0.004,0.035-0.004,0.049-0.008c0.055-0.013,0.106-0.033,0.163-0.043l0.004,0.016
			c1.283-0.231,2.635,0.526,3.093,1.781c0.484,1.326-0.213,2.695-1.558,3.06c-0.876,0.236-1.804-0.021-2.483-0.593
			c0.035,0.197,0.077,0.393,0.13,0.588c0.374,1.555,1.37,2.939,2.608,3.516c0.624,0.291,1.298,0.403,2.036,0.4
			c0.368-0.005,0.757-0.049,1.143-0.113l0.636-0.127c0.097-0.033,0.297-0.09,0.426-0.142c0.571-0.229,1.023-0.552,1.394-1.021
			c0.381-0.457,0.678-1.052,0.874-1.723c0.407-1.337,0.465-2.905,0.314-4.464c-0.149-1.568-0.519-3.157-1.098-4.676
			c-0.583-1.518-1.389-2.979-2.471-4.211c-1.071-1.229-2.451-2.184-3.967-2.625c-0.756-0.211-1.549-0.298-2.351-0.26
			c-0.391,0.014-0.835,0.082-1.18,0.148c-0.456,0.096-0.859,0.209-1.276,0.337c-1.627,0.539-3.002,1.417-4.057,2.591
			c-1.066,1.167-1.817,2.609-2.36,4.154c-0.547,1.543-0.902,3.193-1.143,4.875c-0.51,3.373-0.514,6.879-0.475,10.4
			c0.04,3.215,0.179,6.461,0.177,9.736c0.088,0.039,0.181,0.072,0.269,0.113c1.043,0.459,2.054,0.965,3.031,1.517
			c0.058,0.034,0.113,0.069,0.168,0.103c0,0,33.876,1.895,36.053-0.274c2.178-2.169,2.224-31.085,2.224-31.085
			c0-12.705-11.973-23.004-26.743-23.004c-12.63,0-23.208,7.534-26.012,17.66v-8.289c0-12.703-11.974-23.004-26.743-23.004
			c-14.768,0-26.742,10.301-26.742,23.004c0,0-0.614,42.154,1.915,44.612c2.529,2.46,34.87,0.38,34.87,0.38
			C76.973,108.322,77.352,108.109,77.737,107.909z"/>
		<g>
			<g>
				<path fill="#FFFAFA" stroke="#A6CE39" stroke-miterlimit="10" d="M152.31,98.869c0.366,0.131,0.685,0.314,0.953,0.549
					c0.269,0.234,0.48,0.508,0.633,0.824c0.153,0.313,0.231,0.652,0.231,1.012c0,0.366-0.078,0.705-0.231,1.018
					c-0.153,0.311-0.364,0.584-0.633,0.814c-0.269,0.23-0.587,0.416-0.953,0.545c-0.366,0.133-0.761,0.199-1.186,0.199
					c-0.425,0-0.821-0.066-1.187-0.199c-0.366-0.129-0.683-0.314-0.952-0.545c-0.272-0.23-0.482-0.504-0.636-0.814
					c-0.152-0.313-0.228-0.651-0.228-1.018c0-0.359,0.076-0.699,0.228-1.012c0.154-0.316,0.364-0.59,0.636-0.824
					c0.269-0.234,0.585-0.418,0.952-0.549c0.366-0.135,0.762-0.198,1.187-0.198C151.549,98.671,151.944,98.734,152.31,98.869z
					 M150.11,99.213c-0.307,0.115-0.576,0.271-0.802,0.473c-0.226,0.197-0.405,0.434-0.53,0.7c-0.126,0.269-0.191,0.558-0.191,0.868
					s0.064,0.6,0.191,0.869c0.125,0.268,0.304,0.501,0.53,0.701c0.226,0.197,0.495,0.354,0.802,0.473
					c0.31,0.115,0.649,0.172,1.015,0.172c0.36,0,0.695-0.057,1.004-0.172c0.311-0.119,0.579-0.275,0.802-0.473
					c0.227-0.2,0.405-0.434,0.533-0.701c0.131-0.27,0.195-0.559,0.195-0.869s-0.064-0.6-0.195-0.868
					c-0.128-0.267-0.306-0.503-0.533-0.7c-0.223-0.201-0.491-0.357-0.802-0.473c-0.31-0.116-0.644-0.176-1.004-0.176
					C150.759,99.037,150.42,99.097,150.11,99.213z M150.034,102.748V99.76h1.333c0.393,0,0.677,0.071,0.857,0.213
					c0.182,0.141,0.272,0.346,0.272,0.616c0,0.128-0.024,0.241-0.069,0.339c-0.045,0.098-0.108,0.18-0.189,0.246
					c-0.083,0.066-0.173,0.121-0.279,0.159c-0.104,0.038-0.216,0.069-0.334,0.087l1.034,1.328h-0.503l-0.975-1.328h-0.719v1.328
					H150.034z M151.409,101.096c0.127-0.004,0.239-0.025,0.337-0.056c0.096-0.033,0.175-0.087,0.234-0.159
					c0.059-0.072,0.087-0.169,0.087-0.292c0-0.108-0.023-0.192-0.068-0.259c-0.046-0.063-0.109-0.116-0.185-0.155
					c-0.079-0.041-0.167-0.066-0.264-0.079c-0.095-0.016-0.198-0.023-0.306-0.023h-0.784v1.035h0.566
					C151.157,101.107,151.286,101.104,151.409,101.096z"/>
			</g>
		</g>
	</g>
	<path fill="#FFFAFA" stroke="#A6CE39" stroke-miterlimit="10" d="M211.926,105.76c1.576,0.348,2.363,0.797,2.363,1.338
		c0,0.389-0.834,0.64-2.499,0.752c-6.71,0.545-10.536,0.797-11.482,0.758c-0.81-0.038-1.329-0.234-1.553-0.58
		c-0.135-0.154-0.247-0.541-0.339-1.162c0.226-4.416,0.316-11.076,0.271-19.986c-0.045-2.323-0.109-4.648-0.202-6.972
		c-0.09-2.554-0.428-4.589-1.012-6.099c-0.723-1.936-2.297-2.906-4.729-2.906c-1.755,0-3.24,0.504-4.456,1.512
		c-1.037,0.813-1.668,2.111-1.893,3.893c-0.18,1.432-0.313,3.388-0.404,5.867c-0.091,2.555,0.271,8.365,1.081,17.43
		c0.089,0.852,0.27,1.334,0.54,1.452c0.81,0.308,2.115,0.832,3.917,1.568c2.163,0.929,3.243,1.53,3.243,1.8
		c0,0.271-1.192,0.426-3.58,0.467l-15.467,0.172c-2.252,0.039-3.376-0.096-3.376-0.406c0-0.232,0.877-0.718,2.634-1.452l3.377-1.453
		c0.135-0.038,0.27-0.329,0.404-0.87c0.494-9.336,0.721-16.325,0.676-20.974c0-2.477-0.607-4.259-1.825-5.344
		c-0.901-0.968-2.026-1.453-3.376-1.453c-1.126,0-2.252,0.339-3.378,1.017c-1.125,0.68-1.979,1.425-2.565,2.238
		c-0.856,1.16-1.374,3.214-1.553,6.158c-0.092,1.045-0.136,3.583-0.136,7.61c0,6.042-0.046,10.476-0.136,13.304
		c0,0.27,0.136,0.465,0.405,0.58c0.271,0.115,0.856,0.398,1.757,0.842c0.901,0.444,1.711,0.805,2.432,1.076
		c1.845,0.733,2.771,1.239,2.771,1.51c0,0.232-0.993,0.404-2.975,0.523c-3.421,0.311-8.71,0.715-15.871,1.221
		c-1.755,0.075-2.633-0.079-2.633-0.467c0-0.426,0.708-0.949,2.127-1.568c1.419-0.618,3.208-1.411,5.37-2.379
		c0.269-0.119,0.405-0.391,0.405-0.816c-0.091-3.678-0.361-9.061-0.812-16.148c-0.226-3.373-0.606-8.193-1.146-14.469
		c-0.048-0.348-0.201-0.637-0.475-0.871c-1.665-0.813-3.466-1.547-5.403-2.207c-1.35-0.465-2.026-0.908-2.026-1.337
		c0-0.386,0.788-0.58,2.363-0.58c2.388,0,6.507-0.231,12.361-0.696c0.901-0.076,1.463,0.018,1.688,0.291
		c0.046,0.115,0.068,0.426,0.068,0.928v4.881c0,0.232-0.068,0.349-0.202,0.349c-0.314,0-0.472-0.175-0.472-0.523
		c0-0.077,0.021-0.134,0.067-0.175c0.9-0.93,2.183-1.761,3.85-2.498c1.846-0.85,3.556-1.277,5.133-1.277
		c1.846,0,3.354,0.213,4.526,0.639c1.531,0.583,3.016,1.666,4.458,3.255c0.045,0.077,0.066,0,0.066-0.233
		c0.225-0.349,0.542-0.793,0.946-1.335c0.991-1.396,2.521-2.557,4.594-3.485c1.799-0.814,3.51-1.223,5.133-1.223
		c3.016,0,5.561,0.736,7.632,2.207c2.476,1.785,3.872,5.212,4.187,10.283c0.047,0.93,0.068,1.957,0.068,3.08
		c0,1.897-0.471,8.639-1.417,20.217c-0.048,0.311-0.048,0.485,0,0.523C206.207,103.825,208.367,104.563,211.926,105.76z"/>
	<path fill="#FFFAFA" stroke="#A6CE39" stroke-miterlimit="10" d="M299.739,103.783c1.757,0.779,2.634,1.221,2.634,1.338
		c0,0.154-0.991,0.272-2.973,0.35c-2.386,0.038-5.696,0.136-9.928,0.289c-0.945,0.039-1.552-0.096-1.824-0.404
		c-0.091-0.156-0.133-0.523-0.133-1.104c0-0.971,0-3.776,0-8.425c0.042-3.447,0.042-6.276,0-8.483
		c-0.09-3.099-0.249-5.906-0.471-8.425c-0.494-4.53-2.399-6.796-5.713-6.796c-1.929,0-3.653,0.639-5.177,1.916
		c-1.792,1.513-2.711,3.486-2.756,5.928c-0.046,4.297-0.023,12.102,0.068,23.414c-0.045,0.192,0.069,0.482,0.339,0.871
		c1.349,0.5,3.894,1.471,7.632,2.902c1.35,0.544,2.026,0.834,2.026,0.873c0,0.27-0.81,0.443-2.433,0.521
		c-9.366,0.543-15.286,0.834-17.762,0.871c-1.532,0.039-2.295,0-2.295-0.117c0-0.113,0.471-0.521,1.416-1.219
		c0.947-0.695,2.477-1.762,4.592-3.193c0.045-0.041,0.068-0.195,0.068-0.467c-0.045-3.291-0.405-9.798-1.079-19.519
		c-0.135-3.021-0.474-7.224-1.014-12.608c0-0.115-0.315-0.328-0.946-0.639c-1.306-0.466-3.085-1.104-5.337-1.916
		c-1.44-0.543-2.16-0.91-2.16-1.104c0-0.195,0.855-0.369,2.566-0.523c2.746-0.233,7.003-0.639,12.765-1.222
		c1.036-0.116,1.622-0.018,1.757,0.29c0,0.352,0,0.68,0,0.988l0.135,4.883c0,0.152-0.135,0.23-0.405,0.23
		c-0.27-0.039-0.404-0.154-0.404-0.349c0-0.271,0.763-0.909,2.294-1.918c2.566-1.625,5.493-2.438,8.781-2.438
		c3.377,0,6.1,0.869,8.174,2.612c1.709,1.433,2.655,4.495,2.835,9.18c0.136,3.758-0.089,10.381-0.676,19.87
		c-0.042,0.621,0.136,1.027,0.542,1.219C295.641,101.85,297.262,102.624,299.739,103.783z"/>
	<path fill="#FFFAFA" stroke="#A6CE39" stroke-miterlimit="10" d="M331.444,95.827c-1.037,4.376-2.76,7.562-5.168,9.554
		c-2.409,1.997-5.054,2.992-7.935,2.992c-5.269,0-9.367-2.012-12.294-6.039c-2.657-3.639-3.985-8.326-3.985-14.061
		c0-4.803,1.352-9.313,4.052-13.535c3.063-4.803,6.958-7.203,11.687-7.203c3.153,0,5.877,1.275,8.17,3.832
		c0.136,0.118,0.294,0.077,0.475-0.115c0.631-0.852,1.326-1.918,2.092-3.195c1.26-2.092,2.072-3.137,2.433-3.137
		c0.179,0,0.271,0.311,0.271,0.929c0,0.311-0.069,1.299-0.205,2.962l-1.351,14.991c-0.225,2.634-0.518,3.95-0.877,3.95
		c-0.451,0-1.125-1.125-2.027-3.371l-3.646-9.353c-1.352-3.448-3.084-5.17-5.202-5.17c-1.216,0-2.475,0.695-3.781,2.092
		c-2.658,2.864-3.984,8.501-3.984,16.905c0,5.616,0.809,9.84,2.431,12.664c1.53,2.673,3.805,4.008,6.821,4.008
		c2.027,0,3.873-0.965,5.538-2.903c1.53-1.782,2.456-3.929,2.771-6.448c0.18-1.277,0.63-1.977,1.352-2.094
		c0.584-0.193,1.17-0.152,1.756,0.117C331.421,94.472,331.623,95.014,331.444,95.827z"/>
	<path fill="#FFFAFA" stroke="#A6CE39" stroke-miterlimit="10" d="M372.881,104.714c1.531,0.544,2.296,0.97,2.296,1.28
		c0,0.309-0.878,0.426-2.634,0.347c-0.449-0.038-3.963,0.021-10.536,0.175c-0.452,0-0.879-0.154-1.283-0.465
		c-0.406-0.308-0.609-0.657-0.609-1.047l-0.066-19.17c0-2.438-0.069-4.773-0.203-7c-0.136-2.229-0.451-3.883-0.946-4.967
		c-0.856-1.898-2.409-2.849-4.66-2.849c-1.307,0-2.477,0.331-3.512,0.987c-3.017,1.939-4.548,6.023-4.593,12.258L346,103.381
		c0,0.309,0.158,0.543,0.472,0.693l6.822,2.615c1.396,0.542,2.095,0.969,2.095,1.279c0,0.349-0.858,0.543-2.568,0.58l-17.156,0.523
		c-1.531,0.038-2.297-0.06-2.297-0.291c0-0.27,0.585-0.754,1.756-1.451l3.987-2.326c0.179-0.074,0.202-0.27,0.065-0.58
		c-0.044-3.756-0.18-11.153-0.404-22.193c-0.226-6.931-0.586-14.484-1.081-22.657c0-0.347-0.226-0.599-0.674-0.755l-7.026-2.379
		c-1.486-0.504-2.229-0.895-2.229-1.164c0-0.311,0.946-0.464,2.836-0.464c0.091,0,4.841-0.156,14.253-0.465
		c1.079-0.038,1.62,0.446,1.62,1.45l-0.067,17.082c0.224-0.617,0.989-1.316,2.297-2.092c1.801-1.082,3.355-1.781,4.659-2.092
		c1.308-0.309,2.456-0.465,3.447-0.465c1.935,0,3.331,0.098,4.188,0.291c1.394,0.348,2.768,1.124,4.12,2.325
		c1.846,1.624,2.768,5.071,2.768,10.339c0,1.009-0.359,5.85-1.08,14.523c-0.092,1.319-0.271,3.08-0.541,5.287
		c0,0.465,0.246,0.812,0.745,1.045L372.881,104.714z"/>
	<path fill="#FFFAFA" stroke="#A6CE39" stroke-miterlimit="10" d="M439.748,99.313c0,2.17-0.856,4.202-2.566,6.1
		c-1.173,1.277-2.702,2.332-4.592,3.164c-1.892,0.834-3.784,1.25-5.674,1.25c-3.333,0-6.281-0.967-8.848-2.902
		c-0.27-0.234-0.564-0.213-0.877,0.056c-0.27,0.813-1.013,2.558-2.23,5.229c-0.81,1.588-1.396,2.385-1.756,2.385
		c-0.271,0-0.429-0.991-0.473-2.965c-0.181-5.732-0.227-10.901-0.136-15.512c0.045-1.781,0.248-2.672,0.609-2.672
		c0.359,0,0.946,0.733,1.756,2.207c0.9,2.557,2.273,5.033,4.12,7.437c2.296,2.982,4.93,4.472,7.903,4.472
		c1.487,0,2.791-0.657,3.918-1.975c1.124-1.316,1.688-2.846,1.688-4.59c0-2.092-0.97-3.388-2.905-3.891
		c-2.073-0.893-3.896-1.607-5.471-2.151c-3.783-1.313-6.687-2.71-8.713-4.182c-0.991-0.698-1.892-1.647-2.702-2.849
		c-1.037-1.586-1.553-3.099-1.553-4.527c0-3.953,1.259-7.225,3.781-9.821c1.351-1.394,2.995-2.497,4.931-3.312
		s3.782-1.219,5.539-1.219c2.88,0,5.313,0.621,7.297,1.857l0.674,0.409c0.585-0.892,1.417-2.151,2.501-3.776
		c0.944-1.357,1.617-2.035,2.023-2.035c0.272,0,0.406,0.388,0.406,1.162c0,0.231,0,0.521,0,0.873l-0.068,0.58
		c-0.269,3.717-0.606,8.984-1.012,15.802c-0.093,1.512-0.294,2.267-0.609,2.267c-0.313,0-0.674-0.563-1.079-1.687
		c-0.542-1.743-1.06-3.463-1.555-5.17c-0.854-2.595-1.689-4.415-2.499-5.46c-1.307-1.665-3.22-2.5-5.74-2.5
		c-1.578,0-3.153,0.804-4.729,2.414c-1.578,1.605-2.364,3.842-2.364,6.709c0,2.13,0.292,3.755,0.877,4.877
		c0.495,0.894,1.418,1.844,2.769,2.85c0.989,0.774,3.581,1.799,7.768,3.078c2.834,0.891,4.905,1.742,6.213,2.555
		C438.62,95.283,439.748,97.105,439.748,99.313z"/>
	<path fill="#FFFAFA" stroke="#A6CE39" stroke-miterlimit="10" d="M236.689,69.435c-13.25,0-23.992,9.241-23.992,20.638
		c0,11.399,10.742,20.637,23.992,20.637c13.251,0,23.995-9.237,23.995-20.637C260.684,78.676,249.94,69.435,236.689,69.435z
		 M248.299,96.866c-0.947,7.812-4.666,11.756-11.157,11.833c-5.341,0.08-8.958-1.714-10.849-5.385
		c-0.883-1.732-1.42-4.04-1.626-6.923c-0.065-2.248-0.135-4.497-0.199-6.743c-0.07-2.686,0.302-5.523,1.115-8.521
		c1.08-3.824,2.669-6.488,4.766-7.988c1.352-0.985,3.65-1.499,6.894-1.537c4.666-0.039,7.877,2.089,9.636,6.389
		c0.611,1.461,1.015,3.394,1.216,5.798c0.068,0.593,0.169,2.426,0.306,5.504C248.533,92.369,248.499,94.893,248.299,96.866z"/>
	<path fill="#FFFAFA" stroke="#A6CE39" stroke-miterlimit="10" d="M412.469,70.243c-0.722,0.311-2.318,1.065-4.796,2.267
		c-0.135,0.076-0.361,0.346-0.676,0.811c-2.882,6.818-7.699,18.746-14.455,35.787c-0.584,1.24-6.035,12.082-7.116,14.369
		c-0.72,1.549-2.005,2.935-3.85,4.154c-1.847,1.219-3.625,1.83-5.335,1.83c-2.253,0-4.009-0.447-5.271-1.338
		c-1.261-0.891-1.89-2.033-1.89-3.427c0-1.163,0.484-2.189,1.452-3.08s2.287-1.335,3.951-1.335c3.151,0,4.728,1.275,4.728,3.834
		c0,0.697-0.313,1.277-0.945,1.744c-0.315,0-0.383-0.021-0.202-0.059c1.305-0.35,2.52-1.338,3.647-2.963
		c0.584-0.932,6.147-11.869,7.455-14.658c0.178-0.581,0.178-1.104,0-1.57l-11.618-29.744c-0.091-0.311-0.314-0.697-0.674-1.162
		c-0.901-0.542-2.521-1.471-4.863-2.787c-1.17-0.699-1.758-1.201-1.758-1.51c0-0.233,0.699-0.37,2.096-0.408
		c1.756-0.039,3.602-0.059,5.538-0.059h4.727c2.118,0,4.121-0.039,6.013-0.115c2.07-0.078,3.105,0.059,3.105,0.404
		c0,0.272-0.72,0.816-2.16,1.627c-1.261,0.581-3.243,1.453-5.943,2.616v0.231c1.259,2.518,4.591,9.801,9.997,21.844
		c0.042,0.079,0.021,0.156-0.069,0.233c-0.046,0.116-0.069,0.097-0.069-0.059c1.936-5.421,4.864-13.595,8.781-24.517
		c0-0.115,0.043-0.153,0.138-0.115c-1.127-0.58-2.355-1.201-3.684-1.861c-1.329-0.656-2.263-1.121-2.804-1.394
		c-1.126-0.58-1.688-1.045-1.688-1.394c0-0.35,0.743-0.523,2.229-0.523c5.852,0.08,11.099,0.156,15.737,0.232
		c1.529,0.039,2.296,0.252,2.296,0.64C414.495,69.139,413.819,69.625,412.469,70.243z"/>
	<g>
		<path fill="#FFFAFA" stroke="#A6CE39" stroke-miterlimit="10" d="M250.059,123.174v5.283c0,0.172-0.071,0.315-0.208,0.437
			c-0.137,0.12-0.309,0.177-0.509,0.177c-0.2,0-0.37-0.057-0.507-0.177c-0.138-0.121-0.209-0.265-0.209-0.437v-11.441
			c0-0.172,0.072-0.32,0.209-0.445c0.138-0.126,0.307-0.189,0.507-0.189h3.763c0.554,0,1.069,0.089,1.547,0.269
			c0.477,0.177,0.895,0.423,1.257,0.733s0.649,0.674,0.854,1.084c0.209,0.41,0.313,0.848,0.313,1.312s-0.104,0.903-0.313,1.319
			c-0.205,0.418-0.492,0.777-0.854,1.084c-0.362,0.305-0.78,0.546-1.257,0.723c-0.478,0.18-0.994,0.27-1.547,0.27H250.059z
			 M253.105,121.942c0.338,0,0.661-0.058,0.969-0.169c0.308-0.111,0.578-0.268,0.808-0.465c0.23-0.201,0.411-0.43,0.543-0.686
			c0.131-0.26,0.196-0.541,0.196-0.845c0-0.292-0.065-0.569-0.196-0.835c-0.132-0.264-0.313-0.498-0.543-0.695
			c-0.23-0.199-0.5-0.354-0.808-0.467c-0.309-0.113-0.631-0.17-0.969-0.17h-3.047v4.331H253.105z"/>
		<path fill="#FFFAFA" stroke="#A6CE39" stroke-miterlimit="10" d="M267.211,125.041h-6.485l-1.847,3.635
			c-0.077,0.143-0.205,0.253-0.38,0.328c-0.178,0.071-0.36,0.074-0.543,0.01c-0.186-0.066-0.317-0.178-0.394-0.33
			c-0.078-0.152-0.078-0.307,0-0.465l5.748-11.379c0.046-0.108,0.131-0.211,0.255-0.311c0.123-0.098,0.261-0.148,0.414-0.148
			c0.155,0,0.293,0.045,0.417,0.141c0.123,0.092,0.213,0.197,0.275,0.318l5.704,11.379c0.076,0.158,0.076,0.313,0,0.465
			c-0.078,0.152-0.208,0.264-0.393,0.33c-0.184,0.064-0.366,0.062-0.542-0.01c-0.177-0.075-0.303-0.186-0.381-0.328L267.211,125.041
			z M261.348,123.809h5.241l-2.61-5.124L261.348,123.809z"/>
		<path fill="#FFFAFA" stroke="#A6CE39" stroke-miterlimit="10" d="M278.501,129.07c-0.432,0-0.882-0.049-1.351-0.146
			c-0.469-0.1-0.917-0.24-1.338-0.418c-0.42-0.18-0.809-0.393-1.155-0.646c-0.346-0.25-0.611-0.529-0.796-0.832
			c-0.108-0.159-0.134-0.321-0.079-0.488c0.052-0.164,0.172-0.293,0.356-0.388c0.186-0.092,0.375-0.114,0.567-0.069
			c0.192,0.047,0.341,0.148,0.448,0.309c0.138,0.238,0.342,0.446,0.612,0.627c0.269,0.18,0.566,0.33,0.888,0.456
			c0.325,0.126,0.651,0.219,0.984,0.277c0.33,0.06,0.626,0.09,0.887,0.09c0.417,0,0.822-0.067,1.223-0.2
			c0.401-0.131,0.751-0.311,1.055-0.533c0.297-0.227,0.538-0.494,0.723-0.805c0.186-0.313,0.278-0.646,0.278-1.004
			c0-0.358-0.081-0.669-0.242-0.934c-0.163-0.265-0.389-0.498-0.681-0.695c-0.292-0.197-0.64-0.378-1.039-0.537
			c-0.4-0.156-0.833-0.303-1.292-0.436c-0.462-0.119-0.952-0.268-1.466-0.447c-0.516-0.18-0.986-0.393-1.41-0.645
			c-0.422-0.252-0.772-0.546-1.05-0.885c-0.276-0.336-0.413-0.724-0.413-1.164c0-0.5,0.128-0.947,0.391-1.34
			c0.261-0.389,0.6-0.721,1.015-0.992c0.416-0.27,0.881-0.475,1.397-0.616c0.515-0.139,1.026-0.208,1.535-0.208
			c0.337,0,0.688,0.023,1.051,0.069c0.36,0.046,0.719,0.128,1.072,0.249c0.355,0.121,0.695,0.285,1.026,0.495
			c0.331,0.213,0.636,0.485,0.912,0.813c0.123,0.146,0.17,0.324,0.14,0.529c-0.032,0.205-0.14,0.354-0.323,0.446
			c-0.186,0.105-0.379,0.134-0.579,0.079c-0.202-0.053-0.354-0.15-0.463-0.297c-0.183-0.268-0.399-0.475-0.646-0.627
			c-0.246-0.15-0.495-0.27-0.751-0.349c-0.253-0.077-0.507-0.129-0.76-0.149c-0.253-0.018-0.482-0.027-0.681-0.027
			c-0.311,0-0.631,0.033-0.97,0.1c-0.339,0.064-0.649,0.173-0.935,0.316c-0.285,0.146-0.519,0.34-0.704,0.588
			c-0.186,0.244-0.278,0.551-0.278,0.92c0,0.268,0.135,0.506,0.405,0.717c0.27,0.213,0.595,0.398,0.98,0.558
			s0.787,0.298,1.201,0.415c0.417,0.121,0.77,0.227,1.062,0.318c0.585,0.188,1.115,0.386,1.592,0.596
			c0.477,0.213,0.89,0.463,1.236,0.754c0.348,0.293,0.616,0.629,0.808,1.015c0.191,0.383,0.289,0.84,0.289,1.37
			c0,0.529-0.13,1.025-0.393,1.489c-0.262,0.462-0.612,0.862-1.05,1.202c-0.438,0.336-0.943,0.603-1.511,0.795
			C279.711,128.975,279.117,129.07,278.501,129.07z"/>
		<path fill="#FFFAFA" stroke="#A6CE39" stroke-miterlimit="10" d="M286.375,116.996c0-0.172,0.068-0.318,0.207-0.437
			c0.139-0.118,0.308-0.179,0.509-0.179h8.011c0.199,0,0.369,0.061,0.508,0.179c0.138,0.118,0.207,0.265,0.207,0.437
			c0,0.174-0.069,0.318-0.207,0.436c-0.139,0.121-0.309,0.18-0.508,0.18h-3.278v10.846c0,0.172-0.07,0.315-0.209,0.437
			c-0.138,0.12-0.307,0.177-0.507,0.177c-0.199,0-0.37-0.057-0.507-0.177c-0.14-0.121-0.207-0.265-0.207-0.437v-10.846h-3.302
			c-0.202,0-0.37-0.059-0.509-0.18C286.443,117.314,286.375,117.17,286.375,116.996z"/>
		<path fill="#FFFAFA" stroke="#A6CE39" stroke-miterlimit="10" d="M298.981,116.996c0-0.172,0.066-0.318,0.206-0.437
			c0.14-0.118,0.309-0.179,0.51-0.179h7.017c0.201,0,0.37,0.061,0.507,0.179c0.141,0.118,0.209,0.265,0.209,0.437
			c0,0.174-0.068,0.318-0.209,0.436c-0.137,0.121-0.306,0.18-0.507,0.18h-6.303v4.432h4.202c0.199,0,0.369,0.059,0.508,0.177
			c0.138,0.12,0.208,0.267,0.208,0.437c0,0.174-0.07,0.32-0.208,0.438c-0.139,0.118-0.309,0.18-0.508,0.18h-4.202v4.566h6.303
			c0.201,0,0.37,0.06,0.507,0.18c0.141,0.118,0.209,0.265,0.209,0.437s-0.068,0.315-0.209,0.437
			c-0.137,0.12-0.306,0.177-0.507,0.177h-7.017c-0.201,0-0.37-0.057-0.51-0.177c-0.139-0.121-0.206-0.265-0.206-0.437V116.996z"/>
		<path fill="#FFFAFA" stroke="#A6CE39" stroke-miterlimit="10" d="M310.801,116.996c0-0.172,0.068-0.318,0.208-0.437
			s0.306-0.179,0.508-0.179c0.199,0,0.369,0.061,0.509,0.179c0.139,0.118,0.207,0.265,0.207,0.437v10.845h5.865
			c0.2,0,0.37,0.06,0.507,0.18c0.139,0.118,0.207,0.265,0.207,0.437s-0.068,0.315-0.207,0.437c-0.138,0.12-0.308,0.177-0.507,0.177
			h-6.581c-0.202,0-0.368-0.057-0.508-0.177c-0.14-0.121-0.208-0.265-0.208-0.437V116.996z"/>
		<path fill="#FFFAFA" stroke="#A6CE39" stroke-miterlimit="10" d="M322.16,116.996c0-0.172,0.069-0.318,0.208-0.437
			c0.139-0.118,0.307-0.179,0.507-0.179h7.02c0.2,0,0.37,0.061,0.506,0.179c0.139,0.118,0.21,0.265,0.21,0.437
			c0,0.174-0.071,0.318-0.21,0.436c-0.136,0.121-0.307,0.18-0.506,0.18h-6.303v4.432h4.202c0.199,0,0.369,0.059,0.509,0.177
			c0.137,0.12,0.207,0.267,0.207,0.437c0,0.174-0.069,0.32-0.207,0.438c-0.14,0.118-0.31,0.18-0.509,0.18h-4.202v4.566h6.303
			c0.2,0,0.37,0.06,0.506,0.18c0.139,0.118,0.21,0.265,0.21,0.437s-0.071,0.315-0.21,0.437c-0.136,0.12-0.307,0.177-0.506,0.177
			h-7.02c-0.2,0-0.368-0.057-0.507-0.177c-0.139-0.121-0.208-0.265-0.208-0.437V116.996z"/>
		<path fill="#FFFAFA" stroke="#A6CE39" stroke-miterlimit="10" d="M337.814,123.174h-2.149v5.283c0,0.172-0.069,0.315-0.206,0.437
			c-0.137,0.12-0.31,0.177-0.509,0.177c-0.202,0-0.37-0.057-0.509-0.177c-0.136-0.121-0.207-0.265-0.207-0.437v-11.441
			c0-0.172,0.071-0.32,0.207-0.445c0.139-0.126,0.307-0.189,0.509-0.189h3.786c0.555,0,1.07,0.089,1.546,0.269
			c0.478,0.177,0.897,0.423,1.259,0.733c0.361,0.311,0.647,0.674,0.853,1.084c0.208,0.41,0.313,0.848,0.313,1.312
			c0,0.423-0.083,0.821-0.251,1.19c-0.172,0.373-0.404,0.707-0.696,1.004c-0.292,0.299-0.64,0.55-1.049,0.755
			c-0.407,0.206-0.841,0.339-1.303,0.405l3.508,4.905c0.093,0.134,0.153,0.285,0.186,0.458c0.029,0.171-0.071,0.33-0.302,0.477
			c-0.2,0.118-0.395,0.141-0.588,0.069c-0.192-0.071-0.343-0.183-0.452-0.329L337.814,123.174z M338.736,121.942
			c0.337,0,0.661-0.058,0.97-0.169c0.307-0.111,0.577-0.268,0.809-0.465c0.229-0.201,0.412-0.43,0.541-0.686
			c0.132-0.26,0.197-0.541,0.197-0.845c0-0.292-0.064-0.569-0.197-0.835c-0.129-0.264-0.312-0.498-0.541-0.695
			c-0.232-0.199-0.502-0.354-0.809-0.467c-0.309-0.113-0.632-0.17-0.97-0.17h-3.071v4.331H338.736z"/>
		<path fill="#FFFAFA" stroke="#A6CE39" stroke-miterlimit="10" d="M346.517,116.996c0-0.172,0.069-0.318,0.208-0.437
			c0.138-0.118,0.307-0.179,0.51-0.179c0.197,0,0.365,0.061,0.505,0.179c0.139,0.118,0.208,0.265,0.208,0.437v11.461
			c0,0.172-0.069,0.315-0.208,0.437c-0.14,0.12-0.308,0.177-0.505,0.177c-0.203,0-0.372-0.057-0.51-0.177
			c-0.14-0.121-0.208-0.265-0.208-0.437V116.996z M347.902,115.189c-0.091,0.146-0.23,0.243-0.414,0.286
			c-0.187,0.047-0.364,0.024-0.533-0.069c-0.17-0.092-0.282-0.215-0.335-0.367c-0.054-0.15-0.042-0.3,0.036-0.445l1.915-2.86
			c0.093-0.146,0.23-0.241,0.417-0.287c0.184-0.046,0.369-0.023,0.554,0.069c0.17,0.092,0.278,0.218,0.322,0.377
			c0.046,0.16,0.035,0.311-0.044,0.457L347.902,115.189z"/>
		<path fill="#FFFAFA" stroke="#A6CE39" stroke-miterlimit="10" d="M361.061,125.041h-6.487l-1.848,3.635
			c-0.074,0.143-0.203,0.253-0.379,0.328c-0.177,0.071-0.359,0.074-0.543,0.01c-0.185-0.066-0.313-0.178-0.394-0.33
			c-0.075-0.152-0.075-0.307,0-0.465l5.751-11.379c0.044-0.108,0.131-0.211,0.253-0.311c0.123-0.098,0.261-0.148,0.415-0.148
			s0.292,0.045,0.418,0.141c0.122,0.092,0.212,0.197,0.274,0.318l5.704,11.379c0.076,0.158,0.076,0.313,0,0.465
			c-0.079,0.152-0.21,0.264-0.395,0.33c-0.183,0.064-0.365,0.062-0.542-0.01c-0.178-0.075-0.305-0.186-0.382-0.328L361.061,125.041z
			 M355.197,123.809h5.242l-2.61-5.124L355.197,123.809z"/>
	</g>
</g>
<rect x="-746" y="-346" fill="#FFFAFA" stroke="#ED1C24" stroke-width="3" stroke-miterlimit="10" width="2058" height="862"/>
</svg>
